<svg width="88" height="88" viewBox="0 0 88 88" fill="none" xmlns="http://www.w3.org/2000/svg">
<path d="M74.0527 29.3341C73.201 29.0243 72.5937 28.2383 72.5937 27.332C72.5937 26.6153 72.9817 25.9634 73.5589 25.5386C76.3907 23.4542 78.1714 20.1055 78.1714 16.514V11.7331C78.1714 5.55778 73.1913 0.577698 67.016 0.577698C60.8407 0.577698 55.7611 5.55778 55.7611 11.7331V16.514C55.7611 19.9881 57.3545 23.2233 60.1139 25.2931C60.7248 25.7514 61.1396 26.445 61.1396 27.2088C61.1396 28.1852 60.4774 29.0262 59.5638 29.3709C59.489 29.3991 59.4143 29.4279 59.3398 29.4572C57.9701 29.9961 56.357 29.4584 55.5249 28.2442C52.9443 24.4788 48.6031 21.992 43.7093 21.992C38.7555 21.992 34.4609 24.4822 31.8932 28.332C31.1814 29.3991 29.8276 29.8942 28.6334 29.4257C28.5458 29.3913 28.4582 29.3577 28.3706 29.3249C27.5129 29.004 26.8766 28.2159 26.8766 27.3001C26.8766 26.6032 27.2536 25.969 27.816 25.5574C30.6628 23.4745 32.4543 20.1164 32.4543 16.514V11.7331C32.4543 5.55778 27.4742 0.577698 21.2989 0.577698C15.1236 0.577698 10.1435 5.55778 10.1435 11.7331V16.514C10.1435 19.983 11.7323 23.2138 14.4842 25.284C15.102 25.7488 15.522 26.4508 15.522 27.2239C15.522 28.1956 14.8745 29.0394 13.9644 29.3799C5.86131 32.4118 0.482178 40.075 0.482178 48.8845C0.482178 49.6813 1.17939 50.3785 1.9762 50.3785H31.4583C31.6443 50.3785 31.8166 50.4743 31.9195 50.6293C32.7629 51.8991 33.8329 53.0284 35.0666 53.9858C35.9998 54.71 36.6376 55.7825 36.6376 56.9638C36.6376 58.4847 35.6072 59.7961 34.1822 60.3277C23.6847 64.2443 16.7172 74.2595 16.7172 85.7371C16.7172 86.5339 17.4144 87.2311 18.2113 87.2311H69.5061C70.3029 87.2311 71.0001 86.5339 71.0001 85.7371C71.0001 74.3126 63.6378 64.1007 53.1133 60.2709C51.7601 59.7785 50.781 58.538 50.781 57.0979C50.781 55.9608 51.4072 54.9325 52.3201 54.2545C52.8051 53.8943 53.2638 53.5077 53.6961 53.0948C55.2313 51.6286 57.1414 50.4781 59.2642 50.4781H86.4384C87.2352 50.4781 87.9324 49.7809 87.9324 48.9841C87.8383 40.1436 82.1496 32.2799 74.0527 29.3341ZM14.269 47.49C8.44389 47.49 3.73431 42.1219 7.44396 37.6307C9.89537 34.6629 13.3216 32.4873 17.3148 31.5538C18.0121 31.3546 18.5101 30.757 18.5101 30.0598V25.0797C18.5101 24.4821 18.2113 23.9841 17.7133 23.7849C14.9244 22.3904 13.1316 19.6016 13.1316 16.514V11.7331C13.1316 7.251 16.8168 3.56575 21.2989 3.56575C25.781 3.56575 29.4662 7.251 29.4662 11.7331V16.514C29.4662 19.6016 27.5738 22.49 24.785 23.8845C24.287 24.0837 23.8886 24.6813 23.8886 25.2789V30.0598C23.8886 30.757 24.3866 31.3546 25.0838 31.5538C25.7435 31.709 26.3881 31.8945 27.0176 32.1102C28.7627 32.7082 29.5658 34.5896 29.5658 36.4343V42.8088C29.5658 45.1549 27.9398 47.49 25.5937 47.49H14.269ZM48.5897 52.9681C48.0917 53.1673 47.6933 53.7649 47.6933 54.3626V60.7371C47.6933 61.4343 48.1913 62.0319 48.8886 62.2311C55.8513 63.7419 61.6011 68.2417 64.9095 74.1879C67.7196 79.2385 63.0166 84.3426 57.2369 84.3426H30.2817C24.5389 84.3426 19.8255 79.2939 22.5756 74.2523C25.795 68.3501 31.4618 63.9085 38.4304 62.3307C39.1276 62.1315 39.6256 61.5339 39.6256 60.8367V54.263C39.6256 53.6653 39.3268 53.1673 38.8288 52.9681C34.9443 51.0757 32.5539 47.1912 32.5539 42.9084V36.5339C32.5539 30.259 37.6336 25.2789 43.8089 25.2789C49.9842 25.2789 55.0639 30.3586 55.0639 36.5339V42.8088C55.0639 47.0916 52.5738 51.0757 48.5897 52.9681ZM62.024 47.5073C59.6742 47.4988 58.0519 45.1586 58.0519 42.8088V36.4343C58.0519 34.8173 58.6695 33.1262 60.1669 32.5159C61.0701 32.1478 62.0012 31.8603 62.9324 31.6534C63.6296 31.4542 64.1276 30.8566 64.1276 30.1594V25.1793C64.1276 24.5817 63.8288 24.0837 63.3308 23.8845C60.5419 22.49 58.7491 19.7012 58.7491 16.6136V11.8327C58.7491 7.35061 62.4344 3.66535 66.9164 3.66535C71.3985 3.66535 75.0838 7.35061 75.0838 11.8327V16.6136C75.0838 19.7012 73.1913 22.5896 70.4025 23.9841C69.9045 24.1833 69.5061 24.7809 69.5061 25.3785V30.1594C69.5061 30.8566 70.0041 31.4542 70.7013 31.6534C74.6433 32.5237 78.059 34.6834 80.5427 37.6185C84.3505 42.1183 79.6497 47.5712 73.755 47.5498L62.024 47.5073Z" fill="#C4C4C4"/>
</svg>
