<svg width="92" height="66" viewBox="0 0 92 66" fill="none" xmlns="http://www.w3.org/2000/svg">
<path d="M79.5703 41.2209C77.7192 39.9409 76.5537 37.8832 76.3281 35.644C75.5771 28.212 73.2871 17.778 66.6351 10.269C60.8341 3.722 52.7261 0.403 42.5321 0.403C37.6399 0.403 33.1201 1.42065 29.1911 2.88401C29.0297 2.94414 28.8599 2.98518 28.7003 3.05002C28.5511 3.11064 28.4087 3.18677 28.2592 3.24652C22.0402 5.73142 17.4266 9.26742 15.3648 11.4274C14.6674 12.1579 14.0022 12.9263 13.2575 13.6086C5.34819 20.8554 0.881104 30.9359 0.881104 41.818C0.881104 41.944 0.897103 42.07 0.928103 42.192C1.0111 42.512 3.0511 50.094 11.8571 54.075C24.1481 59.631 39.7761 65.592 56.4601 65.592C59.7721 65.592 63.1241 65.358 66.5001 64.838C88.3191 61.484 91.1171 56.439 91.1171 52.418C91.118 51.5907 91.1181 49.2063 79.5703 41.2209ZM64.3821 12.25C72.0947 20.9475 73.5828 34.2108 73.684 42.3913C73.7304 46.1425 71.0396 49.273 67.4001 50.183C61.7242 51.6022 56.2856 47.1469 56.1521 41.2978C56.0708 37.7331 55.8591 33.8462 55.4131 30.113C54.2965 20.7759 51.6421 10.435 42.2234 5.65178C41.1813 5.12259 41.3634 3.403 42.5321 3.403C51.8251 3.403 59.1771 6.379 64.3821 12.25ZM29.1765 6.08321C29.3825 5.99933 29.6363 5.94592 29.8587 5.94855C43.6345 6.11132 50.4028 13.4804 52.4341 30.468C53.1608 36.5525 53.2405 43.1911 53.1605 48.0069C53.1265 50.0511 50.9175 51.2791 49.1385 50.2716C48.1992 49.7397 47.6647 48.7089 47.7376 47.6319C48.1826 41.0561 48.3613 24.5797 40.0351 16.369C36.6439 13.0255 33.1419 11.0431 29.8521 10.0153C28.1299 9.47727 27.5055 6.76359 29.1765 6.08321ZM16.7731 14.538C16.8791 14.46 16.9801 14.38 17.0721 14.301C17.3681 14.063 17.6601 13.823 17.9641 13.593C21.3901 11.368 29.9731 10.662 37.9301 18.505C42.9051 23.411 44.4427 32.0714 44.7955 39.0755C45.0656 44.4354 40.396 48.5321 35.0777 47.8131C30.3278 47.1711 24.7165 46.0759 19.7081 44.21C14.8367 42.3957 10.8051 39.5782 7.67248 35.8137C5.9127 33.699 5.52466 30.772 6.57885 28.2308C8.76147 22.9695 12.2221 18.2772 16.7731 14.538ZM66.0451 61.873C46.4421 64.891 27.4471 57.829 13.0941 51.341C6.72352 48.4626 4.52701 43.4571 3.98226 41.9079C3.9124 41.7092 3.88324 41.4984 3.88648 41.2878C3.91465 39.4575 6.24554 38.8084 7.5619 40.0805C11.3144 43.7069 15.4204 45.8138 18.6621 47.021C27.6156 50.3567 38.1033 51.3253 43.0866 51.6047C44.7301 51.6968 46.3395 52.1335 47.7717 52.9447L53.6671 56.284C53.6771 56.29 53.6891 56.291 53.6991 56.297C53.7991 56.351 53.9051 56.396 54.0171 56.426C54.0371 56.431 54.0571 56.432 54.0771 56.436C54.1521 56.453 54.2271 56.469 54.3061 56.475C54.3391 56.478 54.3721 56.479 54.4041 56.479H54.4051H54.4061C54.4071 56.479 54.4081 56.479 54.4081 56.479C54.5231 56.479 54.6341 56.462 54.7411 56.437C54.7501 56.435 54.7601 56.436 54.7691 56.434L75.2491 51.313C75.8521 51.163 76.2991 50.656 76.3741 50.039C76.7433 47.0323 80.1045 45.23 82.5034 47.0797C85.1315 49.106 86.8747 50.6882 87.6574 51.6587C88.0314 52.1225 88.1562 52.7309 87.9936 53.3041C86.9708 56.909 79.5994 59.7889 66.0451 61.873Z" fill="#C4C4C4"/>
</svg>
