<svg width="93" height="93" viewBox="0 0 93 93" fill="none" xmlns="http://www.w3.org/2000/svg">
<path d="M90.9875 38.3975L79.0493 36.591C78.393 34.3786 77.5062 32.2299 76.405 30.182L83.5631 20.4733C84.002 19.8778 83.9401 19.0509 83.4174 18.5272L74.2244 9.33516C73.7007 8.81247 72.8738 8.74963 72.2783 9.18853L62.6005 16.3227C60.5436 15.2055 58.381 14.3057 56.1506 13.6384L54.3541 1.76409C54.2434 1.03192 53.6149 0.491272 52.8748 0.491272H39.8753C39.1351 0.491272 38.5067 1.03192 38.396 1.76409L36.5995 13.6384C34.369 14.3057 32.2065 15.2065 30.1496 16.3227L20.4718 9.18853C19.8763 8.74963 19.0493 8.81147 18.5257 9.33516L9.33364 18.5272C8.81094 19.0499 8.7481 19.8778 9.187 20.4733L16.3451 30.182C15.2439 32.2299 14.3571 34.3786 13.7007 36.591L1.76256 38.3975C1.03039 38.5082 0.489746 39.1367 0.489746 39.8768V52.8763C0.489746 53.6165 1.03039 54.2449 1.76157 54.3556L13.7586 56.1711C14.4219 58.3596 15.3067 60.4793 16.399 62.4963L9.18601 72.2798C8.7471 72.8753 8.80995 73.7022 9.33264 74.2259L18.5247 83.418C19.0474 83.9417 19.8753 84.0035 20.4708 83.5646L30.2863 76.3287C32.2932 77.406 34.4 78.2778 36.5705 78.9292L38.395 90.989C38.5057 91.7212 39.1341 92.2618 39.8743 92.2618H52.8738C53.6139 92.2618 54.2424 91.7212 54.3531 90.989L56.1775 78.9292C58.3481 78.2778 60.4548 77.406 62.4618 76.3287L72.2773 83.5646C72.8728 84.0035 73.6997 83.9407 74.2234 83.418L83.4164 74.2259C83.9391 73.7032 84.002 72.8753 83.5621 72.2798L76.3491 62.4963C77.4424 60.4793 78.3271 58.3596 78.9895 56.1711L90.9865 54.3556C91.7177 54.2449 92.2583 53.6165 92.2583 52.8763V39.8768C92.2593 39.1377 91.7187 38.5082 90.9875 38.3975ZM89.2668 51.5895L77.593 53.3561C77.0064 53.4449 76.5276 53.8718 76.372 54.4434C75.6698 57.0319 74.6284 59.5257 73.2768 61.8569C72.9775 62.3726 73.0124 63.016 73.3665 63.4958L80.389 73.021L73.0164 80.3935L63.4623 73.3501C62.9835 72.998 62.3431 72.9611 61.8294 73.2574C59.5042 74.593 57.0234 75.6205 54.4528 76.3097C53.8793 76.4643 53.4503 76.9431 53.3616 77.5317L51.586 89.2713H41.1601L39.3845 77.5317C39.2957 76.9441 38.8668 76.4643 38.2932 76.3097C35.7227 75.6205 33.2419 74.593 30.9167 73.2574C30.403 72.9621 29.7616 72.999 29.2838 73.3501L19.7296 80.3935L12.3571 73.021L19.3795 63.4958C19.7326 63.016 19.7685 62.3726 19.4693 61.8569C18.1177 59.5267 17.0763 57.0319 16.374 54.4434C16.2184 53.8708 15.7396 53.4449 15.1531 53.3561L3.47927 51.5895V41.1636L15.1002 39.406C15.6897 39.3172 16.1705 38.8863 16.3232 38.3097C17.0144 35.7002 18.0538 33.1786 19.4144 30.8145C19.7107 30.2997 19.6738 29.6584 19.3217 29.1806L12.3571 19.7332L19.7296 12.3606L29.1491 19.3042C29.6289 19.6574 30.2723 19.6933 30.789 19.393C33.1581 18.0165 35.6927 16.9621 38.3202 16.2589C38.8947 16.1052 39.3237 15.6254 39.4124 15.0369L41.1601 3.48279H51.586L53.3336 15.0369C53.4224 15.6254 53.8513 16.1052 54.4259 16.2589C57.0533 16.9621 59.587 18.0165 61.9571 19.393C62.4728 19.6943 63.1162 19.6574 63.597 19.3042L73.0164 12.3606L80.389 19.7332L73.4244 29.1806C73.0723 29.6584 73.0354 30.2997 73.3316 30.8145C74.6912 33.1786 75.7316 35.7002 76.4229 38.3097C76.5755 38.8863 77.0563 39.3162 77.6459 39.406L89.2668 41.1636V51.5895Z" fill="#C4C4C4"/>
</svg>
